<?xml version="1.0" standalone="no"?>
<!DOCTYPE svg PUBLIC "-//W3C//DTD SVG 20010904//EN"
 "http://www.w3.org/TR/2001/REC-SVG-20010904/DTD/svg10.dtd">
<svg version="1.0" xmlns="http://www.w3.org/2000/svg"
 width="400.000000pt" height="400.000000pt" viewBox="0 0 400.000000 400.000000"
 preserveAspectRatio="xMidYMid meet">
<metadata>
Created by potrace 1.14, written by Peter Selinger 2001-2017
</metadata>
<g transform="translate(0.000000,400.000000) scale(0.100000,-0.100000)"
fill="#000000" stroke="none">
<path d="M1936 3788 c-3 -29 -10 -125 -16 -212 -11 -179 -13 -176 58 -176 l42
0 1 68 c1 103 16 122 20 25 2 -45 7 -84 11 -88 4 -4 22 -8 40 -8 l33 -2 17 80
16 80 1 -82 1 -83 50 0 c33 0 50 4 51 13 0 6 6 100 13 207 7 107 10 198 7 202
-3 4 -37 8 -76 9 l-70 3 -16 -80 -16 -79 -7 83 -7 82 -47 1 c-26 0 -59 3 -74
5 -25 4 -27 2 -32 -48z m231 -220 c-3 -7 -5 -2 -5 12 0 14 2 19 5 13 2 -7 2
-19 0 -25z"/>
<path d="M1675 3805 l-50 -11 -5 -69 -5 -70 -14 63 c-9 40 -19 62 -28 62 -24
0 -103 -22 -103 -29 0 -3 18 -85 40 -181 22 -96 40 -179 40 -185 0 -5 -46 65
-102 155 -55 91 -102 167 -104 169 -5 5 -154 -61 -154 -69 0 -4 20 -78 45
-166 25 -87 48 -168 51 -179 3 -11 -8 1 -24 26 -44 68 -64 79 -149 79 -73 0
-103 13 -103 46 0 22 16 17 34 -11 l16 -24 45 31 c25 18 45 35 45 38 0 10 -64
67 -82 73 -52 18 -168 -64 -168 -119 0 -41 31 -95 70 -121 26 -18 47 -23 101
-23 56 0 73 -4 89 -20 21 -21 27 -50 10 -50 -5 0 -19 14 -32 30 -12 17 -25 30
-30 30 -4 0 -26 -13 -48 -29 l-39 -28 25 -36 c13 -20 33 -41 44 -47 36 -19 89
-11 136 20 24 17 44 32 44 33 0 1 7 20 15 42 10 28 14 33 15 18 0 -28 2 -28
67 -1 46 19 52 25 46 42 -20 61 4 86 30 31 l17 -35 54 24 c30 13 80 30 110 36
62 13 59 5 35 99 -13 53 -6 47 26 -19 16 -35 34 -59 41 -56 6 2 32 8 58 11 25
4 46 12 46 17 0 5 -25 53 -55 106 -59 104 -62 118 -46 245 4 32 5 59 2 61 -3
1 -28 -3 -56 -9z m-295 -366 c0 -5 -4 -9 -9 -9 -8 0 -41 82 -41 99 0 10 50
-80 50 -90z"/>
<path d="M2390 3785 c0 -3 -21 -74 -46 -157 -49 -163 -55 -205 -31 -242 21
-32 83 -59 135 -59 69 0 86 24 143 213 27 89 49 166 49 171 0 12 -102 41 -111
32 -3 -5 -28 -81 -54 -170 -26 -90 -52 -163 -56 -163 -13 0 -12 5 36 171 25
85 44 160 43 168 -4 17 -108 52 -108 36z"/>
<path d="M2638 3491 c-65 -93 -118 -173 -118 -178 0 -5 23 -20 51 -34 50 -23
52 -23 63 -6 24 41 31 47 44 38 12 -7 11 -14 -3 -41 -9 -17 -15 -33 -13 -34
30 -21 101 -56 105 -52 4 3 37 96 74 205 l68 200 -57 31 c-97 52 -83 60 -214
-129z m110 -53 c-26 -64 -26 -64 -38 -52 -6 6 2 27 22 57 17 26 32 47 34 47 1
0 -7 -24 -18 -52z"/>
<path d="M2915 3418 c-34 -95 -61 -149 -92 -190 -23 -31 -43 -58 -43 -61 0 -2
20 -18 44 -35 l45 -32 45 64 c33 45 79 88 156 147 61 46 110 87 110 90 0 4
-18 19 -40 34 -44 30 -42 31 -109 -29 l-33 -31 30 60 30 60 -38 28 c-21 15
-42 27 -47 27 -6 0 -31 -60 -58 -132z"/>
<path d="M684 3278 l-75 -73 153 -153 154 -153 77 80 c55 56 77 86 77 104 0
29 -43 83 -156 195 -67 66 -77 72 -114 72 -37 0 -47 -7 -116 -72z m184 -122
c74 -75 96 -106 75 -106 -10 0 -183 173 -183 182 0 24 35 -1 108 -76z"/>
<path d="M3270 3263 c-33 -29 -33 -29 -15 -57 15 -23 16 -29 4 -40 -8 -7 -48
-41 -89 -76 -41 -35 -92 -80 -113 -99 l-37 -35 37 -38 c20 -21 41 -38 46 -38
4 0 63 47 129 105 l121 106 23 -22 23 -21 30 22 c17 12 31 26 31 32 0 11 -61
87 -121 152 l-36 38 -33 -29z"/>
<path d="M1835 3189 c-279 -49 -450 -119 -635 -263 -73 -57 -120 -100 -120
-110 0 -3 119 -6 265 -6 l265 0 -5 -23 c-4 -13 -7 -39 -8 -59 -2 -33 -5 -37
-37 -43 -65 -13 -195 -57 -214 -74 -41 -36 -59 -105 -41 -160 6 -21 6 -21
-239 -21 -284 0 -252 15 -291 -131 -64 -239 -55 -467 27 -691 l20 -58 167 0
166 0 -33 -26 c-83 -66 -83 -175 0 -237 68 -51 126 -62 333 -62 105 0 280 7
390 15 110 7 308 14 440 14 173 1 246 4 262 14 15 8 81 12 227 12 198 0 206 1
231 23 54 46 46 142 -17 205 l-41 42 120 0 121 0 25 68 c43 116 61 224 61 372
0 145 -10 215 -51 353 l-26 87 -427 0 -428 0 -7 28 c-3 15 -16 37 -27 49 -16
17 -21 38 -23 85 -4 87 -21 187 -36 204 -10 12 35 14 335 14 190 0 346 4 346
8 0 10 -81 80 -164 141 -114 84 -300 168 -446 202 -155 36 -368 48 -485 28z
m135 -71 c0 -9 5 -18 11 -20 6 -2 -16 -4 -49 -3 -33 0 -56 3 -51 6 5 3 7 12 4
20 -4 11 5 14 40 14 35 0 45 -4 45 -17z m-110 -32 c0 -2 -7 -7 -16 -10 -8 -3
-12 -2 -9 4 6 10 25 14 25 6z m185 -26 c10 -11 16 -20 13 -20 -3 0 -13 9 -23
20 -10 11 -16 20 -13 20 3 0 13 -9 23 -20z m-225 7 c0 -2 -10 -12 -22 -23
l-23 -19 19 23 c18 21 26 27 26 19z m181 -24 c15 -9 31 -23 33 -30 7 -16 -25
-18 -41 -2 -17 17 -33 2 -33 -31 0 -32 39 -69 74 -71 20 -1 20 -1 -2 -7 -13
-4 -23 -10 -23 -14 1 -11 5 -11 50 -3 79 13 175 -65 186 -152 3 -26 11 -68 16
-92 6 -25 7 -61 4 -82 -6 -33 -11 -38 -41 -44 -43 -8 -52 -27 -25 -54 17 -17
20 -29 15 -61 -4 -22 -4 -40 -1 -40 4 0 27 10 52 22 50 25 54 37 26 92 -19 37
-19 37 -1 21 10 -9 22 -30 25 -46 4 -16 11 -29 16 -29 13 0 11 -37 -2 -46 -17
-10 -4 -67 27 -114 54 -82 41 -239 -23 -290 -32 -25 -46 -25 -100 1 -54 26
-70 57 -85 158 -17 119 -35 132 -62 43 -8 -26 -15 -38 -15 -27 -1 11 12 47 28
81 27 58 47 164 30 164 -5 0 -23 -9 -41 -19 -17 -11 -35 -18 -40 -15 -20 13
-27 -9 -12 -37 14 -29 14 -32 -3 -51 -10 -11 -38 -30 -63 -43 -25 -13 -54 -32
-64 -44 -24 -26 -36 -27 -36 -3 0 11 -9 45 -20 77 -22 63 -27 154 -9 172 11
11 49 6 49 -7 0 -9 46 -30 65 -30 20 0 19 34 0 50 -31 26 -5 20 50 -11 51 -29
61 -31 88 -21 47 18 54 5 61 -121 9 -194 25 -255 75 -294 26 -20 75 -15 99 10
53 56 55 128 6 250 -30 74 -34 94 -25 113 13 29 15 29 -44 3 l-48 -21 -49 52
c-44 46 -48 55 -42 82 9 42 -52 196 -83 211 -44 20 -29 58 29 72 36 9 64 -20
73 -76 4 -24 12 -55 18 -69 5 -14 9 -35 8 -48 -2 -22 0 -23 36 -16 21 4 41 8
45 10 3 2 0 26 -7 54 -7 27 -16 71 -20 98 -12 91 -61 143 -135 144 -65 1 -117
-62 -107 -129 4 -24 2 -33 -8 -33 -8 0 -17 5 -20 10 -11 18 -25 11 -25 -13 0
-13 -5 -28 -12 -35 -15 -15 -50 -16 -65 -1 -19 19 -43 2 -43 -29 0 -27 -47
-112 -69 -126 -19 -12 -13 -64 8 -76 31 -16 36 -48 13 -73 -12 -12 -26 -44
-33 -72 -21 -88 -25 -98 -42 -109 -28 -18 -29 0 -4 48 21 40 23 52 15 86 -9
36 -8 42 16 71 14 17 23 35 20 41 -3 5 -20 -6 -36 -26 -16 -20 -33 -36 -38
-36 -8 0 11 97 23 117 8 12 -29 43 -50 43 -7 0 -13 -6 -13 -14 0 -7 -7 -19
-15 -26 -8 -7 -15 -25 -15 -41 0 -34 -9 -36 -41 -10 l-24 20 22 40 c28 49 12
66 -17 19 -12 -19 -19 -45 -17 -60 4 -28 3 -28 -58 -28 -49 0 -66 -4 -80 -20
-22 -25 -12 -39 13 -17 25 23 137 25 181 3 18 -10 30 -20 27 -23 -3 -3 -21 4
-40 15 l-36 21 -5 -22 c-5 -19 -11 -22 -47 -19 -49 5 -83 -12 -114 -58 -20
-29 -24 -31 -24 -13 0 12 5 23 11 25 13 4 16 43 6 80 -6 22 -4 26 7 22 8 -3
25 1 38 10 12 9 42 16 65 16 40 0 43 2 43 28 0 36 64 103 73 78 9 -23 37 -20
37 3 0 32 15 32 57 1 43 -32 53 -28 53 20 0 10 24 50 53 89 42 56 57 70 79 71
15 0 31 -7 36 -16 12 -22 32 -9 32 20 0 22 -66 94 -107 115 -38 19 -89 13
-123 -15 -44 -38 -60 -75 -60 -141 0 -51 -4 -61 -29 -85 l-28 -27 5 24 c3 17
-1 27 -12 31 -21 8 -148 -32 -189 -60 -38 -26 -55 -75 -39 -111 7 -14 7 -27 2
-30 -13 -8 -23 58 -16 98 9 48 40 72 131 100 124 38 135 40 135 22 0 -20 16
-19 24 1 3 9 6 39 6 67 0 67 32 117 95 147 l47 23 50 -24 c28 -13 68 -40 89
-61 31 -30 39 -34 39 -20 0 10 11 29 25 42 32 30 31 38 -2 42 -16 2 -27 8 -25
16 3 17 -13 15 -29 -4 -11 -14 -10 -18 6 -30 10 -8 15 -17 11 -21 -4 -4 -15
-2 -24 5 -9 7 -41 26 -70 43 -74 44 -68 65 15 61 66 -4 83 8 83 58 0 21 -3 22
-45 16 -36 -6 -45 -4 -45 8 0 8 8 20 18 25 27 16 111 13 143 -6z m77 -38 c-3
-3 -9 2 -12 12 -6 14 -5 15 5 6 7 -7 10 -15 7 -18z m-320 -42 c-12 -28 -15
-29 -38 -16 l-25 13 27 0 c18 0 29 7 33 21 4 11 9 18 11 16 3 -3 -1 -18 -8
-34z m362 -7 c8 -3 4 -4 -10 -3 -16 1 -26 9 -28 22 -3 18 -3 18 10 4 7 -9 20
-19 28 -23z m-84 -284 c20 -12 64 -133 64 -174 0 -32 -4 -39 -24 -44 -31 -8
-65 3 -93 29 -31 28 -29 43 7 62 29 15 30 17 26 75 -5 59 -2 67 20 52z m-359
-400 c-3 -15 -19 -61 -36 -102 -37 -88 -106 -165 -163 -182 -20 -6 -39 -18
-41 -27 -3 -9 -5 -5 -6 10 -1 19 -10 30 -36 42 -20 9 -40 28 -45 43 -16 41
-12 49 11 20 27 -34 70 -56 110 -56 45 0 112 71 163 172 31 61 37 84 33 110
-5 27 -5 29 4 15 6 -11 9 -31 6 -45z m-207 39 c0 -4 -27 -33 -60 -64 -33 -30
-60 -61 -60 -69 0 -10 -2 -10 -9 1 -16 26 79 141 115 141 8 0 14 -4 14 -9z
m343 -53 c4 -45 2 -65 -9 -75 -15 -15 -18 -41 -8 -67 8 -22 34 -20 35 2 0 10
3 12 6 5 2 -7 18 -13 34 -13 34 0 30 -16 -7 -30 -27 -11 -31 -32 -10 -49 22
-18 -11 -80 -44 -81 -39 0 -100 -20 -100 -32 0 -7 19 -9 58 -5 31 3 89 8 127
11 l70 6 -75 -15 c-41 -8 -99 -17 -127 -21 -29 -4 -53 -11 -53 -15 0 -5 24 -9
53 -10 l52 0 -54 -17 c-82 -26 -78 -42 12 -42 41 0 90 -6 108 -14 30 -13 37
-12 76 7 24 12 43 25 43 29 0 5 10 6 23 3 12 -4 36 -1 52 5 47 18 12 41 -70
46 -38 2 -71 6 -73 9 -12 12 99 4 147 -11 29 -8 55 -14 57 -12 8 9 -18 77 -46
121 -22 35 -30 59 -29 90 l1 42 9 -49 c5 -30 21 -68 40 -95 22 -31 33 -59 35
-86 2 -39 3 -40 49 -50 26 -6 63 -24 83 -41 21 -16 62 -48 93 -69 l56 -39 -29
-24 c-16 -13 -36 -39 -46 -58 -9 -18 -47 -64 -84 -102 -38 -38 -68 -73 -68
-76 0 -3 13 -6 29 -6 20 0 37 -9 55 -31 14 -17 26 -34 26 -37 0 -4 4 -24 9
-44 l9 -38 -127 2 -126 2 110 5 c103 6 110 7 107 26 -6 44 -25 74 -55 89 -29
13 -34 13 -56 0 -15 -11 -34 -14 -55 -9 -33 6 -218 6 -225 -1 -3 -2 5 -18 18
-34 18 -24 20 -34 11 -51 -7 -11 -9 -27 -6 -35 4 -11 -4 -14 -37 -14 l-43 0 4
38 c2 20 -3 56 -11 80 l-15 42 105 0 c104 0 104 0 130 30 13 17 30 30 36 30 6
0 2 -6 -9 -14 -24 -18 -12 -31 37 -40 27 -5 40 -2 50 10 11 14 10 18 -6 31
-19 15 -13 14 28 -2 10 -4 17 -3 17 4 0 19 -70 43 -105 37 -17 -4 -44 -20 -60
-36 -28 -29 -31 -30 -130 -30 -101 0 -101 0 -124 30 -47 64 -163 114 -294 126
l-77 7 35 47 c24 32 33 54 29 66 -6 18 -6 18 8 0 14 -18 17 -17 75 30 33 28
76 60 97 73 24 15 35 29 32 40 -13 48 -16 91 -6 91 5 0 10 7 10 15 0 8 -4 15
-10 15 -5 0 -8 29 -7 65 1 49 -2 68 -13 75 -11 7 0 10 36 10 60 0 64 5 64 85
0 56 13 105 28 105 5 0 12 -28 15 -62z m190 -165 c-13 -2 -33 -2 -45 0 -13 2
-3 4 22 4 25 0 35 -2 23 -4z m-556 -195 c-3 -8 -6 -5 -6 6 -1 11 2 17 5 13 3
-3 4 -12 1 -19z m23 -67 c0 -32 -6 -24 -14 19 -4 25 -3 31 4 20 5 -8 10 -26
10 -39z m377 43 c-3 -3 -12 -4 -19 -1 -8 3 -5 6 6 6 11 1 17 -2 13 -5z m810
-215 c246 -87 363 -170 363 -257 0 -43 -15 -79 -40 -92 -28 -15 -217 -2 -224
15 -3 10 11 11 60 7 80 -6 136 16 154 59 28 66 -12 115 -143 179 -207 100
-301 116 -376 67 -23 -15 -46 -38 -51 -51 -4 -12 -31 -42 -59 -65 -28 -24 -51
-47 -51 -51 0 -16 60 -28 117 -23 50 5 67 2 111 -21 30 -15 58 -37 64 -51 7
-16 24 -28 47 -34 20 -5 54 -14 76 -19 37 -9 35 -10 -37 -11 -68 -1 -78 1 -78
17 0 10 -7 28 -16 40 -19 27 -89 65 -112 59 -11 -2 0 -11 31 -26 74 -36 102
-92 54 -110 -13 -5 -63 -11 -110 -13 -87 -5 -87 -5 -93 21 -14 73 -27 102 -55
125 -17 14 -35 26 -41 26 -6 0 19 32 56 70 36 39 66 77 66 84 0 8 18 30 40 50
37 33 45 36 99 36 41 0 87 -10 148 -31z m-1001 -120 c104 -39 159 -111 168
-223 l5 -54 -107 -8 c-208 -14 -431 -10 -498 10 -78 23 -131 65 -140 111 -8
42 9 95 40 124 32 30 127 61 208 68 38 3 70 9 73 13 6 10 195 -20 251 -41z
m934 -126 c0 -7 -58 36 -66 49 -4 7 9 -1 29 -16 20 -16 37 -30 37 -33z m-562
-140 c-16 -2 -40 -2 -55 0 -16 2 -3 4 27 4 30 0 43 -2 28 -4z"/>
<path d="M1695 2110 c-4 -6 -2 -16 3 -23 6 -7 12 -35 14 -61 3 -52 25 -75 35
-38 5 20 6 20 30 5 23 -15 26 -15 43 3 18 18 18 21 3 52 -9 19 -23 32 -34 32
-12 0 -19 7 -19 20 0 16 -7 20 -34 20 -19 0 -38 -5 -41 -10z"/>
<path d="M1965 1788 l-70 -30 -53 17 c-50 17 -55 17 -110 1 -31 -10 -66 -17
-76 -17 -20 0 -113 -68 -159 -117 l-28 -29 63 -7 c120 -13 191 -40 253 -97 26
-24 41 -28 109 -32 77 -5 79 -5 103 23 31 37 76 46 133 26 28 -10 49 -12 60
-6 25 13 80 78 80 95 0 7 25 28 55 45 30 17 55 35 55 39 0 5 -21 14 -47 21
-65 18 -113 43 -142 74 -36 39 -130 36 -226 -6z"/>
<path d="M2334 1405 c-3 -8 1 -24 10 -37 9 -12 16 -35 16 -50 l0 -28 85 0 c83
0 85 1 85 23 0 32 -61 93 -100 101 -53 10 -90 7 -96 -9z"/>
<path d="M1281 1551 c-100 -26 -155 -130 -104 -198 35 -48 98 -64 294 -73 104
-5 203 -5 240 0 35 5 69 10 76 10 17 0 26 35 18 70 -5 23 -17 34 -63 55 -31
14 -79 40 -105 57 -48 31 -49 31 -155 25 -61 -3 -96 -2 -82 3 14 4 62 8 107 9
77 1 86 -1 155 -39 69 -38 118 -51 118 -31 0 5 -15 14 -32 20 -18 7 -64 31
-103 53 l-70 42 -130 3 c-71 1 -145 -2 -164 -6z"/>
<path d="M517 3088 c-16 -22 -25 -43 -20 -47 6 -3 33 -21 62 -40 28 -18 50
-35 48 -37 -2 -2 -32 5 -68 16 -35 11 -68 20 -74 20 -10 0 -55 -63 -55 -77 0
-5 70 -55 155 -112 85 -58 153 -106 152 -108 -2 -1 -86 20 -187 47 -102 27
-187 46 -191 42 -8 -10 -59 -131 -59 -141 0 -9 352 -221 366 -221 5 0 18 21
29 47 11 26 21 50 23 53 1 3 -13 14 -33 23 -24 12 -33 21 -28 32 3 9 12 14 20
11 53 -21 59 -18 78 26 10 24 33 64 52 90 l32 47 -27 19 c-15 11 -45 31 -66
46 -48 32 -47 32 45 1 l74 -25 17 22 c23 31 42 67 37 72 -8 6 -343 231 -349
233 -3 1 -18 -16 -33 -39z m41 -466 c2 -7 1 -12 -2 -12 -9 0 -106 49 -106 54
0 9 104 -32 108 -42z"/>
<path d="M3475 3021 c-16 -10 -93 -55 -170 -101 -77 -45 -145 -87 -152 -92 -8
-7 -3 -22 19 -59 l31 -49 31 19 c95 56 125 71 130 62 3 -5 -28 -29 -69 -53
-41 -23 -75 -46 -75 -50 0 -4 13 -29 28 -55 16 -26 37 -72 47 -101 15 -41 23
-51 37 -47 10 3 26 7 37 10 33 10 33 -22 0 -35 -40 -17 -42 -22 -23 -71 10
-23 22 -72 28 -108 8 -49 15 -66 26 -64 46 5 396 77 403 83 13 11 -13 110 -30
110 -8 0 -91 -16 -184 -35 -94 -19 -173 -35 -177 -35 -11 0 44 32 183 105 183
96 167 77 134 164 -15 40 -30 75 -31 77 -2 1 -90 -16 -196 -40 -106 -24 -192
-42 -192 -41 0 1 74 46 165 100 91 54 165 102 165 107 0 5 -12 29 -26 54 -29
48 -25 49 -106 -3 -40 -25 -58 -29 -58 -13 0 5 27 24 60 42 33 18 60 36 60 40
0 10 -54 98 -60 98 -3 0 -18 -9 -35 -19z m48 -483 c-24 -12 -46 -19 -49 -15
-11 10 1 18 38 27 53 13 56 10 11 -12z"/>
<path d="M247 2499 c-27 -16 -57 -87 -57 -136 0 -54 30 -89 91 -104 60 -16 87
-8 146 45 54 49 65 53 106 43 48 -13 32 -30 -22 -22 l-48 6 -10 -51 c-10 -50
-10 -52 14 -61 43 -16 97 -11 122 12 49 46 67 142 35 188 -22 30 -73 51 -126
51 -47 0 -72 -13 -129 -67 -37 -35 -78 -42 -87 -15 -3 8 6 12 29 10 32 -3 34
-2 42 45 5 26 7 51 4 54 -12 11 -93 13 -110 2z"/>
<path d="M3615 2178 l-40 -10 -1 -186 c-1 -206 -17 -313 -75 -487 -55 -165
-154 -347 -257 -474 l-36 -44 44 -39 43 -39 31 37 c150 180 281 453 336 702
28 124 44 338 36 455 -9 107 -5 103 -81 85z"/>
<path d="M307 2174 c-12 -13 -7 -326 7 -419 40 -259 126 -484 264 -690 33 -49
69 -101 80 -114 l20 -25 37 28 c20 16 39 34 41 41 3 7 -20 47 -51 90 -191 267
-288 574 -288 917 l-1 156 -27 6 c-14 3 -37 8 -51 11 -13 3 -27 3 -31 -1z"/>
<path d="M1096 1162 c-7 -12 81 -87 177 -152 135 -90 301 -158 480 -197 128
-27 390 -24 527 6 110 24 248 73 334 118 112 60 305 202 306 226 0 10 -1818 9
-1824 -1z"/>
<path d="M809 885 c-74 -75 -135 -139 -137 -143 -1 -4 25 -34 58 -67 l60 -59
32 31 32 32 -24 21 -24 21 70 71 c38 40 71 75 74 78 3 3 21 22 39 43 l35 37
-34 35 c-19 19 -37 35 -40 35 -4 0 -67 -61 -141 -135z"/>
<path d="M2980 962 c-41 -20 -80 -75 -80 -112 0 -34 38 -87 132 -184 65 -68
77 -76 110 -76 42 0 98 40 98 71 0 11 5 16 13 13 7 -2 23 7 36 20 l24 25 -28
33 c-15 18 -47 54 -72 81 l-44 47 -45 -36 c-24 -20 -44 -42 -44 -49 0 -17 37
-48 49 -41 11 7 51 -45 51 -66 -1 -18 -180 173 -180 191 0 10 12 3 34 -18 l34
-33 42 39 42 39 -41 37 c-46 42 -77 46 -131 19z"/>
<path d="M976 792 c-108 -148 -121 -172 -112 -205 10 -40 63 -95 103 -106 61
-17 89 3 178 127 43 61 81 110 82 108 2 -2 -5 -31 -16 -65 -12 -40 -39 -89
-75 -137 -31 -41 -59 -81 -62 -88 -3 -9 11 -22 41 -36 25 -12 47 -21 49 -19 2
2 17 24 35 48 17 24 31 42 31 40 0 -2 -7 -26 -15 -53 -8 -26 -13 -52 -10 -56
3 -4 23 -17 45 -29 48 -25 43 -32 74 108 20 89 28 106 72 160 26 33 50 59 51
57 2 -1 -21 -74 -51 -162 -30 -88 -56 -168 -58 -178 -3 -18 21 -30 150 -70 16
-5 22 0 31 25 17 48 14 57 -19 64 -32 7 -36 20 -19 59 10 21 15 23 37 15 29
-11 35 -6 50 38 10 30 9 32 -19 42 -31 11 -36 27 -16 55 10 14 18 15 40 7 24
-9 29 -8 37 12 9 19 10 18 5 -8 -23 -148 -45 -328 -41 -332 3 -3 25 -8 49 -10
l44 -5 10 63 10 64 2 -66 1 -67 36 -7 c20 -3 37 -5 39 -3 2 2 12 35 24 73 l21
70 -6 -55 c-3 -30 -6 -64 -7 -75 -2 -16 6 -21 43 -26 25 -4 47 -5 49 -3 2 1
16 87 31 191 16 103 29 177 29 163 10 -181 21 -353 23 -356 2 -2 50 1 107 5
125 10 131 15 131 113 0 55 -4 72 -20 88 -19 19 -19 22 -5 44 21 32 10 102
-21 133 -22 22 -31 23 -156 24 -73 0 -148 1 -167 2 -34 2 -34 1 -51 -58 l-18
-60 -3 65 -4 65 -75 16 c-83 18 -227 66 -280 94 l-34 18 -29 -34 c-17 -19 -27
-26 -23 -16 21 61 20 65 -26 88 -23 12 -62 35 -86 51 -24 17 -45 28 -46 26 -2
-1 -45 -60 -95 -130 -51 -71 -97 -128 -103 -128 -13 0 5 27 103 162 44 59 79
109 79 112 0 3 -20 19 -44 36 l-45 30 -85 -118z m1114 -337 c0 -19 -4 -35 -9
-35 -5 0 -11 16 -13 35 -3 24 0 35 9 35 8 0 13 -13 13 -35z m10 -166 c0 -22
-4 -39 -9 -39 -9 0 -21 47 -21 82 0 17 3 18 15 8 9 -7 15 -29 15 -51z"/>
<path d="M2737 774 c-44 -26 -74 -50 -70 -56 3 -7 1 -8 -6 -4 -14 9 -101 -22
-101 -36 0 -5 27 -75 60 -155 34 -80 58 -148 55 -151 -8 -8 -9 -6 -75 151 -34
81 -65 147 -68 147 -21 0 -92 -35 -92 -45 0 -27 122 -301 141 -317 29 -25 105
-24 146 2 66 40 70 82 18 205 -59 143 -77 191 -67 180 5 -5 48 -73 97 -150 48
-77 91 -144 95 -149 7 -7 100 39 100 50 0 3 -18 32 -40 64 -46 68 -56 90 -42
90 6 0 29 -30 52 -67 24 -38 44 -69 45 -71 6 -7 85 43 85 53 0 21 -86 140
-108 150 -12 5 -20 16 -17 23 14 36 -61 132 -104 132 -15 0 -61 -21 -104 -46z
m102 -80 c13 -30 14 -34 1 -34 -8 0 -40 51 -40 64 0 14 29 -8 39 -30z"/>
<path d="M2290 607 c-20 -7 -44 -27 -57 -46 -27 -41 -26 -70 14 -216 13 -49
25 -98 26 -107 1 -9 3 -15 5 -13 3 2 17 -2 33 -10 54 -29 140 -10 173 36 22
32 20 71 -9 195 -30 128 -37 142 -80 160 -41 17 -58 17 -105 1z m55 -89 c49
-213 55 -252 36 -233 -8 9 -61 222 -61 246 0 19 20 8 25 -13z"/>
</g>
</svg>
